<svg xmlns="http://www.w3.org/2000/svg" viewBox="0 0 500 500" width="500" height="500">
  <defs>
    <!-- Aurora gradient (flowing green, blue, yellow) -->
    <linearGradient id="auroraGradient1" x1="0%" y1="0%" x2="100%" y2="100%">
      <stop offset="0%" style="stop-color:#3b82f6;stop-opacity:0.6" />
      <stop offset="30%" style="stop-color:#22d3ee;stop-opacity:0.7" />
      <stop offset="60%" style="stop-color:#10b981;stop-opacity:0.8" />
      <stop offset="100%" style="stop-color:#fbbf24;stop-opacity:0.5" />
    </linearGradient>

    <linearGradient id="auroraGradient2" x1="100%" y1="0%" x2="0%" y2="100%">
      <stop offset="0%" style="stop-color:#10b981;stop-opacity:0.7" />
      <stop offset="50%" style="stop-color:#22d3ee;stop-opacity:0.8" />
      <stop offset="100%" style="stop-color:#fbbf24;stop-opacity:0.6" />
    </linearGradient>

    <linearGradient id="auroraGradient3" x1="50%" y1="0%" x2="50%" y2="100%">
      <stop offset="0%" style="stop-color:#fbbf24;stop-opacity:0.5" />
      <stop offset="50%" style="stop-color:#10b981;stop-opacity:0.7" />
      <stop offset="100%" style="stop-color:#3b82f6;stop-opacity:0.6" />
    </linearGradient>

    <!-- Sun gradient -->
    <radialGradient id="sunGradient" cx="50%" cy="50%">
      <stop offset="0%" style="stop-color:#ffffff;stop-opacity:1" />
      <stop offset="30%" style="stop-color:#fef3c7;stop-opacity:1" />
      <stop offset="70%" style="stop-color:#fbbf24;stop-opacity:1" />
      <stop offset="100%" style="stop-color:#f59e0b;stop-opacity:1" />
    </radialGradient>

    <!-- Cloud gradient -->
    <linearGradient id="cloudGradient" x1="0%" y1="0%" x2="0%" y2="100%">
      <stop offset="0%" style="stop-color:#ffffff;stop-opacity:0.95" />
      <stop offset="100%" style="stop-color:#e0f2fe;stop-opacity:0.9" />
    </linearGradient>

    <!-- Soft glow filter -->
    <filter id="softGlow">
      <feGaussianBlur stdDeviation="4" result="coloredBlur"/>
      <feMerge>
        <feMergeNode in="coloredBlur"/>
        <feMergeNode in="SourceGraphic"/>
      </feMerge>
    </filter>

    <!-- Strong glow for sun -->
    <filter id="sunGlow">
      <feGaussianBlur stdDeviation="8" result="coloredBlur"/>
      <feMerge>
        <feMergeNode in="coloredBlur"/>
        <feMergeNode in="SourceGraphic"/>
      </feMerge>
    </filter>

    <!-- Aurora glow -->
    <filter id="auroraGlow">
      <feGaussianBlur stdDeviation="12" result="coloredBlur"/>
      <feMerge>
        <feMergeNode in="coloredBlur"/>
        <feMergeNode in="SourceGraphic"/>
      </feMerge>
    </filter>
  </defs>

  <!-- Aurora waves (background) -->
  <path d="M 0 300 Q 125 250, 250 280 T 500 260 L 500 500 L 0 500 Z"
        fill="url(#auroraGradient1)"
        opacity="0.4"
        filter="url(#auroraGlow)"/>

  <path d="M 0 350 Q 100 320, 200 340 T 400 330 T 500 310 L 500 500 L 0 500 Z"
        fill="url(#auroraGradient2)"
        opacity="0.5"
        filter="url(#auroraGlow)"/>

  <path d="M 0 380 Q 125 360, 250 375 T 500 365 L 500 500 L 0 500 Z"
        fill="url(#auroraGradient3)"
        opacity="0.4"
        filter="url(#auroraGlow)"/>

  <!-- Vertical aurora rays -->
  <rect x="120" y="250" width="15" height="150"
        fill="#10b981"
        opacity="0.2"
        filter="url(#auroraGlow)"
        rx="7"/>

  <rect x="230" y="280" width="12" height="120"
        fill="#22d3ee"
        opacity="0.25"
        filter="url(#auroraGlow)"
        rx="6"/>

  <rect x="350" y="260" width="14" height="140"
        fill="#fbbf24"
        opacity="0.2"
        filter="url(#auroraGlow)"
        rx="7"/>

  <!-- Sun outer glow -->
  <circle cx="250" cy="180" r="75"
          fill="#fbbf24"
          opacity="0.3"
          filter="url(#sunGlow)"/>

  <!-- Sun main body -->
  <circle cx="250" cy="180" r="55"
          fill="url(#sunGradient)"
          filter="url(#softGlow)"/>

  <!-- Sun rays (8 rays) -->
  <g opacity="0.8">
    <!-- Ray 1 (top) -->
    <path d="M 250 100 L 255 130 L 245 130 Z"
          fill="#fbbf24"
          filter="url(#softGlow)"/>

    <!-- Ray 2 (top-right) -->
    <path d="M 305 125 L 285 145 L 280 135 Z"
          fill="#fbbf24"
          filter="url(#softGlow)"
          transform="rotate(45 250 180)"/>

    <!-- Ray 3 (right) -->
    <path d="M 330 180 L 300 185 L 300 175 Z"
          fill="#fbbf24"
          filter="url(#softGlow)"/>

    <!-- Ray 4 (bottom-right) -->
    <path d="M 305 235 L 285 215 L 295 210 Z"
          fill="#fbbf24"
          filter="url(#softGlow)"/>

    <!-- Ray 5 (bottom) -->
    <path d="M 250 260 L 255 230 L 245 230 Z"
          fill="#fbbf24"
          filter="url(#softGlow)"/>

    <!-- Ray 6 (bottom-left) -->
    <path d="M 195 235 L 215 215 L 205 210 Z"
          fill="#fbbf24"
          filter="url(#softGlow)"/>

    <!-- Ray 7 (left) -->
    <path d="M 170 180 L 200 185 L 200 175 Z"
          fill="#fbbf24"
          filter="url(#softGlow)"/>

    <!-- Ray 8 (top-left) -->
    <path d="M 195 125 L 215 145 L 220 135 Z"
          fill="#fbbf24"
          filter="url(#softGlow)"/>
  </g>

  <!-- Sun highlight -->
  <ellipse cx="235" cy="165" rx="18" ry="22"
           fill="#ffffff"
           opacity="0.5"
           transform="rotate(-30 235 165)"/>

  <!-- Cloud 1 (left) -->
  <g opacity="0.95">
    <ellipse cx="140" cy="240" rx="45" ry="35"
             fill="url(#cloudGradient)"
             filter="url(#softGlow)"/>
    <ellipse cx="170" cy="235" rx="40" ry="32"
             fill="url(#cloudGradient)"
             filter="url(#softGlow)"/>
    <ellipse cx="155" cy="250" rx="35" ry="28"
             fill="url(#cloudGradient)"
             filter="url(#softGlow)"/>
    <!-- Cloud shadow -->
    <ellipse cx="155" cy="265" rx="45" ry="12"
             fill="#bae6fd"
             opacity="0.3"/>
  </g>

  <!-- Cloud 2 (right) -->
  <g opacity="0.95">
    <ellipse cx="340" cy="220" rx="40" ry="30"
             fill="url(#cloudGradient)"
             filter="url(#softGlow)"/>
    <ellipse cx="365" cy="225" rx="38" ry="30"
             fill="url(#cloudGradient)"
             filter="url(#softGlow)"/>
    <ellipse cx="355" cy="235" rx="32" ry="25"
             fill="url(#cloudGradient)"
             filter="url(#softGlow)"/>
    <!-- Cloud shadow -->
    <ellipse cx="355" cy="248" rx="40" ry="10"
             fill="#bae6fd"
             opacity="0.3"/>
  </g>

  <!-- Small cloud accent (top right) -->
  <g opacity="0.85">
    <ellipse cx="380" cy="140" rx="25" ry="18"
             fill="url(#cloudGradient)"
             filter="url(#softGlow)"/>
    <ellipse cx="395" cy="143" rx="20" ry="16"
             fill="url(#cloudGradient)"
             filter="url(#softGlow)"/>
  </g>

  <!-- Sparkle accents -->
  <g opacity="0.7">
    <path d="M 320 160 L 323 163 L 326 160 L 323 157 Z"
          fill="#ffffff"
          filter="url(#softGlow)"/>

    <path d="M 180 200 L 182 202 L 184 200 L 182 198 Z"
          fill="#ffffff"
          filter="url(#softGlow)"/>

    <circle cx="390" cy="170" r="2"
            fill="#fbbf24"
            filter="url(#softGlow)"/>

    <circle cx="160" cy="180" r="2"
            fill="#22d3ee"
            filter="url(#softGlow)"/>
  </g>
</svg>
